<svg xmlns="http://www.w3.org/2000/svg" viewBox="0 0 134.6 134.6"><g id="Layer_3" data-name="Layer 3"><g id="Organic_logo" data-name="Organic logo"><circle cx="67.3" cy="67.3" r="64.8" style="fill:none;stroke:#27885e;stroke-miterlimit:10;stroke-width:5px"/><path d="M274.74,216.64a57.79,57.79,0,1,1-115.57,0" transform="translate(-149.65 -149.34)" style="fill:#27885e"/><polygon points="70.88 15.53 79.43 16.77 73.24 22.8 74.7 31.32 67.05 27.3 59.4 31.32 60.86 22.8 54.68 16.77 63.23 15.53 67.05 7.78 70.88 15.53" style="fill:#27885e"/><polygon points="42.67 26.45 49.24 27.4 44.48 32.03 45.6 38.58 39.73 35.49 33.86 38.57 34.98 32.03 30.23 27.4 36.8 26.45 39.73 20.5 42.67 26.45" style="fill:#27885e"/><polygon points="92.67 26.45 99.24 27.4 94.48 32.03 95.61 38.58 89.73 35.49 83.86 38.57 84.98 32.03 80.23 27.4 86.8 26.45 89.73 20.5 92.67 26.45" style="fill:#27885e"/><text transform="translate(28.88 63.56)" style="font-size:28.103939056396484px;fill:#27885e;font-family:Gadugi-Bold, Gadugi;font-weight:700">USDA</text><text transform="translate(20.61 95.78)" style="font-size:26.84688949584961px;fill:#fff;font-family:Impact">ORGANIC</text></g></g></svg>